<svg width="75" height="75" viewBox="0 0 75 75" fill="none" xmlns="http://www.w3.org/2000/svg">
<path d="M38.4688 35.7969H44.8125V38.5312H38.4688V45.7188H35.5625V38.5312H29.2188V35.7969H35.5625V29.1562H38.4688V35.7969Z" fill="#BDBDBD"/>
<path d="M38.4688 35.7969H37.4688V36.7969H38.4688V35.7969ZM44.8125 35.7969H45.8125V34.7969H44.8125V35.7969ZM44.8125 38.5312V39.5312H45.8125V38.5312H44.8125ZM38.4688 38.5312V37.5312H37.4688V38.5312H38.4688ZM38.4688 45.7188V46.7188H39.4688V45.7188H38.4688ZM35.5625 45.7188H34.5625V46.7188H35.5625V45.7188ZM35.5625 38.5312H36.5625V37.5312H35.5625V38.5312ZM29.2188 38.5312H28.2188V39.5312H29.2188V38.5312ZM29.2188 35.7969V34.7969H28.2188V35.7969H29.2188ZM35.5625 35.7969V36.7969H36.5625V35.7969H35.5625ZM35.5625 29.1562V28.1562H34.5625V29.1562H35.5625ZM38.4688 29.1562H39.4688V28.1562H38.4688V29.1562ZM38.4688 36.7969H44.8125V34.7969H38.4688V36.7969ZM43.8125 35.7969V38.5312H45.8125V35.7969H43.8125ZM44.8125 37.5312H38.4688V39.5312H44.8125V37.5312ZM37.4688 38.5312V45.7188H39.4688V38.5312H37.4688ZM38.4688 44.7188H35.5625V46.7188H38.4688V44.7188ZM36.5625 45.7188V38.5312H34.5625V45.7188H36.5625ZM35.5625 37.5312H29.2188V39.5312H35.5625V37.5312ZM30.2188 38.5312V35.7969H28.2188V38.5312H30.2188ZM29.2188 36.7969H35.5625V34.7969H29.2188V36.7969ZM36.5625 35.7969V29.1562H34.5625V35.7969H36.5625ZM35.5625 30.1562H38.4688V28.1562H35.5625V30.1562ZM37.4688 29.1562V35.7969H39.4688V29.1562H37.4688Z" fill="#BDBDBD"/>
<rect x="0.5" y="0.5" width="74" height="74" rx="9.5" stroke="#BDBDBD" stroke-linecap="round" stroke-dasharray="3 3"/>
</svg>
