<svg width="20" height="20" viewBox="0 0 20 20" fill="none" xmlns="http://www.w3.org/2000/svg">
<path fill-rule="evenodd" clip-rule="evenodd" d="M1.5 6.389C1.5 5.117 2.54 4.081 3.817 4.081H16.183C17.455 4.081 18.49 5.117 18.49 6.389V9.446C16.847 10.467 14.953 11.182 12.959 11.533C12.411 10.426 11.271 9.7 9.99 9.7C8.72 9.7 7.575 10.423 7.011 11.524C5.029 11.175 3.142 10.463 1.5 9.446V6.389ZM8.704 1.5H11.286C11.958 1.5 12.521 1.961 12.688 2.581H7.301C7.469 1.961 8.031 1.5 8.704 1.5ZM7.384 13.101C7.764 13.154 8.111 12.92 8.211 12.556C8.434 11.744 9.149 11.2 9.99 11.2C10.822 11.2 11.544 11.756 11.746 12.552C11.832 12.888 12.134 13.118 12.473 13.118C12.507 13.118 12.542 13.116 12.576 13.111C15.145 12.755 17.592 11.846 19.654 10.482C19.864 10.342 19.99 10.108 19.99 9.856V6.389C19.99 4.289 18.282 2.581 16.183 2.581H14.206C14.019 1.13 12.788 0 11.286 0H8.704C7.202 0 5.972 1.129 5.784 2.581H3.817C1.712 2.581 0 4.289 0 6.389V9.856C0 10.108 0.126 10.343 0.337 10.482C2.396 11.84 4.833 12.745 7.384 13.101ZM9.2451 13.3841V14.6781C9.2451 15.0921 9.5811 15.4281 9.9951 15.4281C10.4091 15.4281 10.7451 15.0921 10.7451 14.6781V13.3841C10.7451 12.9701 10.4091 12.6341 9.9951 12.6341C9.5811 12.6341 9.2451 12.9701 9.2451 13.3841ZM18.5086 13.4169C18.5386 13.0329 18.8516 12.7269 19.2446 12.7269C19.6576 12.7269 19.9926 13.0619 19.9926 13.4749C19.9926 13.4813 19.9807 13.6353 19.963 13.8639C19.9198 14.4213 19.8423 15.4221 19.8196 15.8079C19.7626 16.7459 19.3986 17.7029 18.8456 18.3689C18.0756 19.2969 17.0946 19.7309 15.7606 19.7339C15.1416 19.7349 12.5836 19.7359 10.0246 19.7359C7.4666 19.7359 4.9076 19.7349 4.2896 19.7339C2.9546 19.7309 1.9736 19.2969 1.2036 18.3679C0.6516 17.7029 0.2866 16.7459 0.2306 15.8079C0.207537 15.4277 0.131726 14.4502 0.0881583 13.8884C0.0693859 13.6464 0.0566 13.4815 0.0566 13.4749C0.0566 13.0619 0.3916 12.7269 0.8046 12.7269C1.1976 12.7269 1.5106 13.0329 1.5406 13.4169C1.5406 13.4169 1.6946 15.1659 1.7276 15.7179C1.7646 16.3289 2.0126 16.9939 2.3586 17.4099C2.8486 18.0009 3.3906 18.2319 4.2916 18.2339C5.5276 18.2359 14.5206 18.2359 15.7576 18.2339C16.6596 18.2319 17.2016 18.0009 17.6906 17.4109C18.0376 16.9939 18.2856 16.3289 18.3226 15.7179C18.3546 15.1659 18.5086 13.4169 18.5086 13.4169Z" fill="#828282"/>
</svg>
